<?xml version="1.0" encoding="UTF-8"?>
<svg version="1.1" xmlns="http://www.w3.org/2000/svg" width="1024" height="1024">
<path d="M0 0 C337.92 0 675.84 0 1024 0 C1024 337.92 1024 675.84 1024 1024 C686.08 1024 348.16 1024 0 1024 C0 686.08 0 348.16 0 0 Z " fill="#FACC15" transform="translate(0,0)"/>
<path d="M0 0 C1.875 1.6796875 1.875 1.6796875 3 3.875 C3.391875 4.59429687 3.78375 5.31359375 4.1875 6.0546875 C5 8 5 8 5 10 C1.27135935 10.60744127 -2.457926 11.2108163 -6.1875 11.8125 C-7.33009277 11.99699707 -8.47268555 12.18149414 -9.64990234 12.37158203 C-15.65739704 13.33341628 -21.66472466 14.24535457 -27.6953125 15.04907227 C-47.93251537 17.7637694 -68.22737912 21.46735158 -87.79199219 27.35693359 C-90.23904672 28.06962064 -92.69769904 28.72065001 -95.1640625 29.36328125 C-117.40999513 35.17062796 -138.33482189 42.90485644 -159 53 C-159.80727539 53.3933252 -160.61455078 53.78665039 -161.44628906 54.19189453 C-181.21662409 63.9415908 -202.5454079 76.86180341 -213 97 C-213.40605469 97.76957031 -213.81210938 98.53914062 -214.23046875 99.33203125 C-219.98194942 111.18797155 -219.95366041 122.58328337 -216 135 C-207.09142276 157.38565564 -186.34000475 171.03078869 -166 182 C-165.42008301 182.31791504 -164.84016602 182.63583008 -164.24267578 182.96337891 C-134.8905236 198.92285255 -101.54681169 208.24214245 -69 215 C-67.59927233 215.29437877 -66.19855672 215.58881494 -64.79785156 215.88330078 C-46.29182043 219.75394243 -27.96789757 222.91181816 -9.12792969 224.67285156 C-5.64557756 225.03706885 -2.1837722 225.49752256 1.28515625 225.97265625 C28.85862839 229.69880113 56.37786902 230.32214787 84.16222382 230.36925507 C86.6405929 230.37489329 89.11888509 230.3859234 91.597229 230.39825439 C136.10003686 230.59205635 180.22617008 225.99018768 224 218 C225.25973633 217.77054688 226.51947266 217.54109375 227.81738281 217.3046875 C262.38043062 210.91679748 297.37850373 201.65980254 329 186 C329.86415527 185.58137695 330.72831055 185.16275391 331.61865234 184.73144531 C344.10280024 178.65271746 355.27313813 171.81853679 366 163 C366.95390625 162.24074219 367.9078125 161.48148438 368.890625 160.69921875 C379.99928188 151.37953268 388.38541609 138.66262549 390.40234375 124.09375 C390.79289515 113.22079913 387.24245071 103.36595937 382 94 C377.76654246 95.44462876 374.74777149 97.54418603 371.25 100.3125 C370.11107263 101.20623346 368.97172683 102.09943387 367.83203125 102.9921875 C367.22182129 103.47268555 366.61161133 103.95318359 365.98291016 104.44824219 C362.32582779 107.31015003 358.62914688 110.12041996 354.9375 112.9375 C354.21143555 113.49284424 353.48537109 114.04818848 352.73730469 114.62036133 C351.3950158 115.64688226 350.05152181 116.67183028 348.70654297 117.69482422 C347.33672947 118.74246699 345.9805065 119.80786882 344.62890625 120.87890625 C343 122 343 122 341 122 C340.95875 123.2375 340.9175 124.475 340.875 125.75 C339.45340881 137.98721067 331.367371 147.47019051 322.38671875 155.26953125 C293.77473591 177.86627012 255.89093763 187.88614138 221 196 C220.30874023 196.16338867 219.61748047 196.32677734 218.90527344 196.49511719 C135.18284805 216.15552843 42.14086632 213.29112144 -138.96777344 163.94189453 C-153.93442301 154.63145373 -165.55438165 143.30605513 -170.58203125 125.99609375 C-172.28775086 117.850087 -170.76227694 110.33644003 -167 103 C-164.5432317 99.46587838 -161.82936972 96.23830206 -159 93 C-158.37351562 92.17628906 -157.74703125 91.35257813 -157.1015625 90.50390625 C-140.30112641 70.48702979 -107.44111608 58.84451056 -82.625 53.625 C-77.38426782 52.39353289 -74.31248872 50.18253032 -70.22265625 46.78515625 C-61.31838723 39.63357287 -53.51131454 39.88413159 -42.57861328 40.3046875 C-33.15343717 40.4523163 -28.26982351 37.76950758 -21 32 C-18.26570554 31.08856851 -16.41241241 30.82916153 -13.578125 30.71875 C-12.28648437 30.66267578 -12.28648437 30.66267578 -10.96875 30.60546875 C-9.62296875 30.55326172 -9.62296875 30.55326172 -8.25 30.5 C-1.60416152 30.23766427 4.86621636 29.83212528 11.40625 28.515625 C13.91451059 28.19741284 15.58349523 28.21182102 18 29 C20.11347699 31.3788463 21.51532946 33.87798374 23.05859375 36.66015625 C25.23741682 40.40843336 27.72812109 43.68969362 30.4375 47.0625 C30.91646729 47.66151123 31.39543457 48.26052246 31.88891602 48.87768555 C32.82956857 50.05161609 33.77182353 51.22426478 34.71582031 52.39550781 C35.82376221 53.77980328 36.91009705 55.18134166 37.9921875 56.5859375 C43.15526965 63.2558419 48.89031638 69.33488924 54.68359375 75.453125 C57.24258312 78.16423961 59.672391 80.95045865 62.0625 83.8125 C67.57926842 90.1071208 76.76188785 98.96031464 85.2265625 100.37109375 C97.87908341 100.72140785 106.36060949 92.91645564 115.16357422 84.75927734 C124.13688086 76.16294024 132.35886687 66.78980451 140 57 C140.50418457 56.35772461 141.00836914 55.71544922 141.52783203 55.05371094 C143.23436135 52.87484316 144.93135267 50.68889383 146.625 48.5 C147.19081787 47.77256592 147.75663574 47.04513184 148.33959961 46.2956543 C151.51882513 42.14690757 154.15587971 38.03742361 156.625 33.4375 C159.23243378 29.25672419 159.23243378 29.25672419 162.30078125 28.23046875 C165.33601194 28.10905952 168.00480987 28.48271475 171 29 C172.32775559 29.15808212 173.65590896 29.31284752 174.984375 29.46484375 C182.56106903 30.46994247 187.94495634 31.86219146 193.40625 37.5390625 C195.03546549 39.29376085 195.03546549 39.29376085 198.125 39.5625 C201.02262202 39.07382542 201.02262202 39.07382542 203.76171875 37.98828125 C213.30299459 35.07640817 223.21316686 36.59373718 232 41 C241.87292151 46.56967169 241.87292151 46.56967169 244.7421875 50.2109375 C248.28957208 53.02184085 251.81200521 52.34868912 256.1875 52.125 C269.89354092 51.53806407 278.84849481 54.77135892 289 64 C289.54140625 64.79019531 290.0828125 65.58039063 290.640625 66.39453125 C293.80083104 69.88436143 297.23424838 71.32983397 301.5 73.1875 C303.01047216 73.86836648 304.52089058 74.5493522 306.03125 75.23046875 C306.69705078 75.52332764 307.36285156 75.81618652 308.04882812 76.11791992 C310.06063287 77.02741073 312.03149765 78.00066136 314 79 C318.24603373 75.31140645 322.45943937 71.59184971 326.625 67.8125 C330.58359784 64.23465279 334.61806785 60.76226476 338.6875 57.3125 C344.49170258 52.38588967 350.05825831 47.24462186 355.58886719 42.0144043 C360.0878267 37.78469891 364.72759133 33.86742799 369.578125 30.04296875 C372.00939153 27.99207779 374.06135543 25.79850938 376.1875 23.4375 C378.80094221 20.74908199 380.39004378 19.46836574 384.1875 19.3125 C388.90784903 20.16371048 391.40151086 21.45663117 394.8125 24.75 C396.56385128 28.06834979 396.4361795 30.28468535 396 34 C394.08920008 36.32698369 392.46329368 37.9881359 390.1875 39.875 C389.29998047 40.65025024 389.29998047 40.65025024 388.39453125 41.44116211 C386.61483563 42.98431288 384.81308509 44.49630468 383 46 C382.05769531 46.78761719 381.11539063 47.57523437 380.14453125 48.38671875 C378.37330083 49.843994 376.5932089 51.29056126 374.8046875 52.7265625 C371.69805037 55.24475583 368.66256299 57.83697368 365.625 60.4375 C361.36564865 64.07253288 357.0285704 67.56015289 352.5625 70.9375 C346.6152965 75.43842718 340.97405472 80.2456941 335.3359375 85.125 C328.33655728 91.17808637 321.10381271 96.93038148 313.8125 102.625 C309.5179308 105.98325823 305.29754011 109.37823708 301.23046875 113.01171875 C298.13862458 115.76784604 295.00602435 118.47604868 291.875 121.1875 C291.22885742 121.74791992 290.58271484 122.30833984 289.91699219 122.88574219 C286.73492169 125.64311716 283.54621018 128.39199432 280.33984375 131.12109375 C273.66120192 136.80656757 267.10744039 142.59182675 260.66796875 148.546875 C257.84039444 151.14675299 254.96060338 153.6755268 252.05859375 156.19140625 C249.5104335 158.4301125 247.00589407 160.71410212 244.5 163 C237.77544319 169.13012085 230.91113042 175.08237472 224 181 C241.42718913 178.06508635 252.74251642 172.14827235 266.33984375 160.98046875 C269.5162205 158.37499587 272.7622286 155.88523791 276.0625 153.4375 C285.4371337 146.47276541 294.56215277 139.18222548 303.66796875 131.87109375 C305.18839594 130.65118651 306.71170462 129.43485933 308.23828125 128.22265625 C314.47224911 123.26691374 320.61612227 118.20562702 326.7578125 113.13647461 C331.26682059 109.41803929 335.80138212 105.73646372 340.375 102.09765625 C351.03654706 93.57793784 361.57054673 84.89961784 372.09765625 76.21484375 C375.30572996 73.56912922 378.52539232 70.93805139 381.75 68.3125 C385.09187582 65.58556966 388.39553576 62.82015494 391.67651367 60.02075195 C397.39920922 55.13839851 403.21279197 50.40414669 409.15551758 45.79150391 C409.70103271 45.36788574 410.24654785 44.94426758 410.80859375 44.5078125 C411.33888184 44.09740723 411.86916992 43.68700195 412.41552734 43.26416016 C414.04997804 41.96012538 415.61663563 40.59392248 417.19140625 39.21875 C420 37 420 37 423.5 36.375 C428.68756439 37.30135078 431.21382267 39.67020349 434.4375 43.875 C435.30905729 47.16754977 434.73956227 49.70041451 434 53 C432.12890625 55.1953125 432.12890625 55.1953125 429.5625 57.125 C428.58023438 57.87523437 427.59796875 58.62546875 426.5859375 59.3984375 C425.39285666 60.26869278 424.19731616 61.13558104 423 62 C422.27844727 62.5249707 421.55689453 63.04994141 420.81347656 63.59082031 C417.6749979 65.87156181 414.53442442 68.14848458 411.37133789 70.39501953 C408.0028079 72.79086026 404.7150206 75.19137577 401.58203125 77.890625 C399 80 399 80 397 80 C397.31751221 80.53367187 397.63502441 81.06734375 397.9621582 81.6171875 C399.41891602 84.07425413 400.86573681 86.53703618 402.3125 89 C402.81201172 89.83917969 403.31152344 90.67835938 403.82617188 91.54296875 C409.65916076 101.50926764 412.1762683 110.29022263 412.1875 121.9375 C412.19974609 122.60201172 412.21199219 123.26652344 412.22460938 123.95117188 C412.24795972 131.97590753 410.03202742 138.70154891 406.4375 145.8125 C406.08816406 146.504646 405.73882813 147.19679199 405.37890625 147.90991211 C400.34542408 157.53176133 393.47643818 165.27428916 385 172 C384.05511719 172.76957031 383.11023438 173.53914062 382.13671875 174.33203125 C366.68986075 186.71695947 349.23942472 195.3765357 331.25 203.4375 C330.4871167 203.77982666 329.7242334 204.12215332 328.93823242 204.47485352 C328.22127197 204.79123779 327.50431152 205.10762207 326.765625 205.43359375 C326.13430664 205.71259521 325.50298828 205.99159668 324.85253906 206.27905273 C323 207 323 207 320.8671875 207.5 C318.2833286 208.19191201 317.4142053 209.49840071 315.75 211.5625 C315.13253906 212.29082031 314.51507812 213.01914062 313.87890625 213.76953125 C313.25886719 214.50558594 312.63882813 215.24164062 312 216 C295.65175618 235.30611678 268.32676856 245.90403723 245 254 C244.20384277 254.27763184 243.40768555 254.55526367 242.58740234 254.84130859 C218.67743411 263.00330863 193.13757052 268.30039248 168.11254883 271.68896484 C165.56765527 272.06365505 163.04081034 272.52068457 160.5078125 272.96875 C73.26069091 287.52692827 -34.17374115 278.76779433 -113 237 C-113.76393066 236.5992627 -114.52786133 236.19852539 -115.31494141 235.78564453 C-125.3377836 230.44151979 -135.44184968 223.513992 -142.28076172 214.26855469 C-146.70990369 208.34689675 -152.26708604 206.21761262 -159 203.5 C-161.26006298 202.54521057 -163.51918655 201.5881943 -165.77734375 200.62890625 C-166.85741699 200.17531738 -167.93749023 199.72172852 -169.05029297 199.25439453 C-183.99248806 192.90006591 -198.61104839 184.56567194 -211 174 C-211.80695313 173.31421875 -212.61390625 172.6284375 -213.4453125 171.921875 C-216.02109663 169.66904851 -218.52245856 167.36030762 -221 165 C-221.77601563 164.26265625 -222.55203125 163.5253125 -223.3515625 162.765625 C-230.1672173 155.78601974 -234.11611012 147.82966726 -238 139 C-238.38414062 138.15179687 -238.76828125 137.30359375 -239.1640625 136.4296875 C-243.78948804 124.71482467 -241.17067176 109.86345321 -236.30859375 98.58984375 C-217.73579138 61.83232743 -174.56095033 42.48896146 -138 29 C-137.07799805 28.65517578 -136.15599609 28.31035156 -135.20605469 27.95507812 C-99.62250501 14.81771866 -61.49587124 7.55730919 -24.0625 2.125 C-22.93501846 1.96020645 -22.93501846 1.96020645 -21.78475952 1.79208374 C-19.64001233 1.48169906 -17.49421294 1.1803992 -15.34765625 0.8828125 C-14.12054932 0.71152832 -12.89344238 0.54024414 -11.62915039 0.36376953 C-7.67426918 -0.03264978 -3.97174736 -0.17389483 0 0 Z " fill="#B50F09" transform="translate(420,422)"/>
<path d="M0 0 C17.66838731 14.70544662 29.68675571 35.39695897 33.72070312 58.00512695 C33.8521875 58.73602539 33.98367188 59.46692383 34.11914062 60.2199707 C34.44132535 62.48832531 34.60367627 64.71621934 34.72070312 67.00512695 C34.78515625 68.20266602 34.84960938 69.40020508 34.91601562 70.6340332 C36.21866827 106.64677139 17.5052735 142.99931573 -2.27929688 172.00512695 C-2.77961426 172.7419873 -3.27993164 173.47884766 -3.79541016 174.23803711 C-15.85152438 191.89011049 -29.00197061 209.21735073 -44.39257812 224.1105957 C-46.05029625 225.77517808 -47.47772281 227.4570789 -48.90429688 229.31762695 C-51.71526563 232.49846002 -54.23916517 234.63047633 -58.27929688 236.00512695 C-63.3909637 236.24853966 -66.06832674 235.53934234 -69.96679688 232.25512695 C-71.42228187 230.85694452 -72.85695646 229.43701328 -74.27929688 228.00512695 C-75.30409833 227.01425932 -76.33023847 226.02477511 -77.35742188 225.03637695 C-84.18827743 218.40137743 -90.37431454 211.4855057 -96.27929688 204.00512695 C-97.6952747 202.31704891 -99.11196092 200.62956486 -100.52929688 198.94262695 C-110.34413962 186.91815992 -119.19701748 174.15764039 -127.17236328 160.84741211 C-128.20774648 159.12420929 -129.26425588 157.4137496 -130.32226562 155.7043457 C-139.73310095 140.01962016 -146.96481454 122.50003282 -152.27929688 105.00512695 C-152.488125 104.33336426 -152.69695312 103.66160156 -152.91210938 102.96948242 C-160.49328841 77.64090722 -157.39915309 51.25140855 -145.27929688 28.00512695 C-131.70376698 4.07537933 -109.99040525 -11.64667024 -83.77539062 -18.90112305 C-55.07548884 -26.20966319 -22.98608196 -18.26736771 0 0 Z " fill="#B60F08" transform="translate(570.279296875,266.994873046875)"/>
<path d="M0 0 C9.30724414 8.92776423 15.75192401 21.33558813 16.828125 34.25 C17.10446109 49.35637319 12.41187035 63.73174442 1.8828125 74.78125 C-5.26435192 81.21122491 -13.27978044 84.95488034 -22.375 87.8125 C-23.365 88.1425 -24.355 88.4725 -25.375 88.8125 C-42.84176783 89.85503702 -56.81062368 87.46955731 -70.625 75.93359375 C-80.28414345 66.87814677 -86.3404211 54.80745393 -86.79736328 41.51879883 C-86.90497022 25.83422005 -82.45802778 13.15254883 -71.625 1.4375 C-51.29421861 -17.45534793 -21.32921905 -17.19826358 0 0 Z " fill="#FDFCFC" transform="translate(544.375,302.1875)"/>
<path d="M0 0 C3.79824154 3.50940187 6.86781885 7.39432448 9.0859375 12.07421875 C9.92157467 14.0736301 9.92157467 14.0736301 12.0546875 14.8984375 C12.7146875 13.5784375 13.3746875 12.2584375 14.0546875 10.8984375 C14.7146875 10.8984375 15.3746875 10.8984375 16.0546875 10.8984375 C16.33441406 11.7440625 16.61414063 12.5896875 16.90234375 13.4609375 C20.62323403 23.98950165 24.23311605 30.1847357 34.3046875 35.3359375 C40.79548184 38.35893436 45.61378855 39.10741632 52.6796875 39.1484375 C53.54464844 39.1690625 54.40960937 39.1896875 55.30078125 39.2109375 C64.0578316 39.26345354 71.11779561 37.46860322 77.62109375 31.4609375 C79.4539288 29.46329712 80.73623787 27.25776841 82.0546875 24.8984375 C82.7146875 24.8984375 83.3746875 24.8984375 84.0546875 24.8984375 C85.08659448 36.5360551 85.08659448 36.5360551 81.5546875 40.8984375 C73.3960762 48.76977375 63.01096714 50.22223516 52.12451172 50.13061523 C37.5553375 49.79309886 25.48525101 45.32900101 15.0546875 34.8984375 C13.00803451 36.58915084 12.13206453 37.50049851 11.6171875 40.1484375 C10.1971386 47.09089879 5.51889432 52.61568081 0.0546875 56.8984375 C-14.83777204 66.10115852 -31.24457674 67.78170015 -48.35546875 65.4296875 C-60.32843713 62.53550234 -71.95836591 55.12932359 -78.9453125 44.8984375 C-83.76080412 36.30304385 -85.63954993 28.02239969 -83.296875 18.171875 C-79.10948283 6.61180945 -70.10188336 -0.51039869 -59.30078125 -5.70703125 C-40.45528795 -13.53920949 -16.5303519 -12.74562487 0 0 Z " fill="#BA110A" transform="translate(539.9453125,548.1015625)"/>
<path d="M0 0 C0.51304687 0.53367187 1.02609375 1.06734375 1.5546875 1.6171875 C3.50184831 3.48014676 4.97549729 3.49708301 7.625 3.8125 C14.39917452 5.03698636 19.53061229 7.91326536 23.859375 13.32421875 C27.41047529 18.57477418 29.16294566 21.90675175 29.25 28.3125 C29.27578125 29.44300781 29.3015625 30.57351563 29.328125 31.73828125 C28.90206859 35.97348489 27.50167739 38.45773674 24.5546875 41.484375 C9.88430925 52.53833443 -6.14853146 59.20881374 -24.5625 59.4375 C-25.66936157 59.4530896 -25.66936157 59.4530896 -26.79858398 59.46899414 C-31.8739362 59.38514703 -35.49276864 58.36093071 -40 56 C-44.26377369 51.2752778 -45.08330693 46.10324597 -46 40 C-46.99 40 -47.98 40 -49 40 C-49.13396373 31.34977077 -46.30137868 24.79513732 -41 18 C-38.17518129 15.60047095 -35.28898475 13.70042749 -32 12 C-37.75 15 -37.75 15 -40 15 C-39.73124573 8.54989753 -37.36586822 4.70327724 -33 0 C-22.87200526 -8.24597273 -10.74044352 -5.88403927 0 0 Z " fill="#FCF9F9" transform="translate(409,527)"/>
<path d="M0 0 C3.79824154 3.50940187 6.86781885 7.39432448 9.0859375 12.07421875 C9.92157467 14.0736301 9.92157467 14.0736301 12.0546875 14.8984375 C12.7146875 13.5784375 13.3746875 12.2584375 14.0546875 10.8984375 C14.7146875 10.8984375 15.3746875 10.8984375 16.0546875 10.8984375 C16.33441406 11.7440625 16.61414063 12.5896875 16.90234375 13.4609375 C20.62323403 23.98950165 24.23311605 30.1847357 34.3046875 35.3359375 C40.79548184 38.35893436 45.61378855 39.10741632 52.6796875 39.1484375 C53.54464844 39.1690625 54.40960937 39.1896875 55.30078125 39.2109375 C64.0578316 39.26345354 71.11779561 37.46860322 77.62109375 31.4609375 C79.4539288 29.46329712 80.73623787 27.25776841 82.0546875 24.8984375 C82.7146875 24.8984375 83.3746875 24.8984375 84.0546875 24.8984375 C85.08659448 36.5360551 85.08659448 36.5360551 81.5546875 40.8984375 C73.3960762 48.76977375 63.01096714 50.22223516 52.12451172 50.13061523 C36.99318127 49.78007568 25.09199859 44.94739687 14.359375 34.19921875 C9.9787461 29.59636771 5.95560706 24.94958802 2.4296875 19.6484375 C-3.7387256 10.49150922 -12.49802803 3.58584162 -23.4296875 1.21875 C-35.13550831 -0.27174271 -46.83017899 0.15501516 -56.9453125 6.8984375 C-57.8940625 7.1665625 -58.8428125 7.4346875 -59.8203125 7.7109375 C-67.2681926 10.54113194 -69.83127613 17.07405992 -72.9453125 23.8984375 C-73.6053125 23.8984375 -74.2653125 23.8984375 -74.9453125 23.8984375 C-73.63511885 26.90909524 -72.29307785 29.90443973 -70.9453125 32.8984375 C-70.64496094 33.60226562 -70.34460938 34.30609375 -70.03515625 35.03125 C-66.3508547 43.16542225 -60.68600464 48.19333507 -52.60546875 51.8984375 C-38.26807161 57.28811983 -23.81044829 55.56986011 -9.9453125 49.8984375 C-7.92881669 48.59018584 -5.9244455 47.26255273 -3.9453125 45.8984375 C-3.2853125 45.8984375 -2.6253125 45.8984375 -1.9453125 45.8984375 C-1.8525 44.8775 -1.8525 44.8775 -1.7578125 43.8359375 C-0.65992395 39.86664813 1.54492725 37.11204195 4.0546875 33.8984375 C5.7046875 34.2284375 7.3546875 34.5584375 9.0546875 34.8984375 C9.0546875 35.8884375 9.0546875 36.8784375 9.0546875 37.8984375 C10.0446875 37.8984375 11.0346875 37.8984375 12.0546875 37.8984375 C11.20124215 44.93936161 7.24858363 50.43048168 2.22265625 55.19921875 C-11.52082369 65.97113546 -28.20608114 67.07189499 -44.9453125 65.8984375 C-57.80187743 64.13121208 -68.54478003 56.83234768 -77.1953125 47.4609375 C-83.04896625 38.88951594 -84.84157565 31.26948249 -83.9453125 20.8984375 C-81.66819524 11.32357095 -75.65921206 4.68961881 -67.9453125 -1.1015625 C-47.78430447 -13.39046308 -19.32794132 -14.90268876 0 0 Z " fill="#FBF6F6" transform="translate(539.9453125,548.1015625)"/>
<path d="M0 0 C1.2065625 0.9590625 1.2065625 0.9590625 2.4375 1.9375 C2.4375 2.5975 2.4375 3.2575 2.4375 3.9375 C-3.55243047 4.2527595 -7.19810356 3.61969822 -12.5625 0.9375 C-12.5625 1.5975 -12.5625 2.2575 -12.5625 2.9375 C-11.0775 3.4325 -11.0775 3.4325 -9.5625 3.9375 C-9.8925 4.5975 -10.2225 5.2575 -10.5625 5.9375 C-9.758125 5.81375 -8.95375 5.69 -8.125 5.5625 C-2.31592138 6.17398196 2.38241009 9.59660288 6.20703125 13.953125 C7.4375 15.9375 7.4375 15.9375 7.4375 18.9375 C8.0975 18.9375 8.7575 18.9375 9.4375 18.9375 C7.50535116 14.08173869 7.50535116 14.08173869 4.75 9.6875 C3.4375 7.9375 3.4375 7.9375 3.4375 4.9375 C9.61173875 4.12510016 14.38945275 6.63748206 19.4375 9.9375 C21.74904672 12.14854469 23.51607886 14.35875058 25.4375 16.9375 C22.94182958 22.3699947 18.97435881 29.19029175 13.484375 31.90234375 C12.18519767 32.26410654 10.88570941 32.62475431 9.5859375 32.984375 C3.46365297 35.70044305 -1.85939156 42.14674655 -4.9375 48 C-6.5625 50.9375 -6.5625 50.9375 -8.39526367 51.60839844 C-12.21721652 52.18877384 -16.0156949 52.16384142 -19.875 52.1875 C-21.11926758 52.2184375 -21.11926758 52.2184375 -22.38867188 52.25 C-27.88345636 52.28469477 -31.72765326 51.61449147 -36.5625 48.9375 C-39.98974441 43.79663339 -39.6640597 38.92952204 -39.5625 32.9375 C-40.2225 32.9375 -40.8825 32.9375 -41.5625 32.9375 C-41.5625 33.5975 -41.5625 34.2575 -41.5625 34.9375 C-42.2225 34.9375 -42.8825 34.9375 -43.5625 34.9375 C-43.95036962 29.28465936 -42.98245881 26.02473392 -40.1875 21.125 C-39.56101562 20.00480469 -38.93453125 18.88460937 -38.2890625 17.73046875 C-36.5625 14.9375 -36.5625 14.9375 -34.5625 12.9375 C-35.5525 12.6075 -36.5425 12.2775 -37.5625 11.9375 C-37.42611444 6.48207775 -35.17685327 3.53613902 -31.58203125 -0.29296875 C-22.52263957 -8.23088835 -9.52119104 -5.96750706 0 0 Z " fill="#FCF9F9" transform="translate(343.5625,500.0625)"/>
<path d="M0 0 C1.36125 0.8353125 1.36125 0.8353125 2.75 1.6875 C7.44501907 6.51293627 10.99310981 12.29938551 12 19 C10.741875 19.350625 9.48375 19.70125 8.1875 20.0625 C-2.27615591 23.62179083 -9.62994178 29.31527072 -15 39 C-15.56867208 40.32204108 -16.11476496 41.65432517 -16.625 43 C-18 46 -18 46 -20.18359375 47.15234375 C-30.49673486 50.25629884 -38.9289329 47.80391282 -48.0390625 43.01953125 C-52.07194157 40.26887362 -54.4524238 37.6427286 -56 33 C-56.44773386 26.28399217 -55.67926206 21.24721976 -51.28857422 15.92578125 C-49.183333 13.68154829 -47.01747903 11.52120487 -44.8125 9.375 C-44.08224609 8.63765625 -43.35199219 7.9003125 -42.59960938 7.140625 C-30.35384369 -4.96413541 -15.6795468 -10.28314446 0 0 Z " fill="#FCFAFA" transform="translate(644,497)"/>
<path d="M0 0 C7.32997857 0.19134336 14.55847737 1.52779112 21.77734375 2.7265625 C22.96869431 2.92238419 22.96869431 2.92238419 24.18411255 3.12216187 C55.05618498 8.22720929 85.70337766 14.30854647 115.40234375 24.2890625 C116.51222656 24.6603125 117.62210938 25.0315625 118.765625 25.4140625 C133.02708872 30.24050381 146.79268827 35.85678957 160.40234375 42.2890625 C160.40234375 45.2890625 160.40234375 45.2890625 158.828125 47.1484375 C157.78205078 48.08429688 157.78205078 48.08429688 156.71484375 49.0390625 C156.03035156 49.67328125 155.34585938 50.3075 154.640625 50.9609375 C152.40234375 52.2890625 152.40234375 52.2890625 150.05249023 51.99511719 C147.46287926 51.30519043 145.19594866 50.43511924 142.76171875 49.3203125 C141.8699292 48.91868896 140.97813965 48.51706543 140.05932617 48.10327148 C139.10002197 47.66958252 138.14071777 47.23589355 137.15234375 46.7890625 C92.76528502 27.23205767 44.9009304 17.10556302 -3.15380859 11.64282227 C-5.59765625 11.2890625 -5.59765625 11.2890625 -8.59765625 10.2890625 C-7.9726423 8.60633264 -7.29588242 6.94275607 -6.59765625 5.2890625 C-6.24703125 4.3609375 -5.89640625 3.4328125 -5.53515625 2.4765625 C-3.59765625 0.2890625 -3.59765625 0.2890625 0 0 Z " fill="#BB140D" transform="translate(601.59765625,422.7109375)"/>
<path d="M0 0 C0.66 0.33 1.32 0.66 2 1 C1.72285156 1.86882812 1.44570313 2.73765625 1.16015625 3.6328125 C0.79792969 4.78523438 0.43570312 5.93765625 0.0625 7.125 C-0.29714844 8.26195312 -0.65679687 9.39890625 -1.02734375 10.5703125 C-4.24671196 21.92214098 -3.86644629 33.13822587 1.40625 43.859375 C5.06434824 49.96770886 9.52157296 54.62197433 14.6328125 59.53125 C23.42747955 68.703246 26.73629097 79.50496797 26.484375 92 C25.68454404 101.13065452 21.79757953 109.86249207 15 116 C15.02094727 115.44127197 15.04189453 114.88254395 15.06347656 114.30688477 C15.14766294 111.72561327 15.19897693 109.14463176 15.25 106.5625 C15.28351563 105.68400391 15.31703125 104.80550781 15.3515625 103.90039062 C15.50772654 93.32027717 11.02101436 85.67630904 4 78 C2.37384881 76.51975145 0.72702444 75.06196272 -0.9375 73.625 C-10.45743643 65.30773438 -18.31741672 54.20512307 -19.2734375 41.3125 C-19.76249827 26.7103001 -15.93898511 16.92707135 -6 6 C-4.04673272 3.93523543 -2.06165304 1.95857039 0 0 Z " fill="#B8110A" transform="translate(332,302)"/>
<path d="M0 0 C4.21292262 1.65101021 8.44261849 3.52380564 12.1015625 6.20703125 C12.1015625 6.86703125 12.1015625 7.52703125 12.1015625 8.20703125 C5.1715625 7.71203125 5.1715625 7.71203125 -1.8984375 7.20703125 C-0.6815625 7.74328125 0.5353125 8.27953125 1.7890625 8.83203125 C6.08666513 10.96938247 8.37034052 13.28089965 11.1015625 17.20703125 C11.1015625 17.86703125 11.1015625 18.52703125 11.1015625 19.20703125 C12.0915625 18.87703125 13.0815625 18.54703125 14.1015625 18.20703125 C13.6065625 17.44390625 13.1115625 16.68078125 12.6015625 15.89453125 C11.1015625 13.20703125 11.1015625 13.20703125 11.1015625 10.20703125 C16.35577756 8.70850289 19.00487114 10.11566182 23.66015625 12.61328125 C28.65698696 15.87521234 32.56094085 20.35266898 34.1015625 26.20703125 C34.12614193 27.87351666 34.12924417 29.54059448 34.1015625 31.20703125 C25.20521954 37.06815132 18.62166615 37.6743787 8.28515625 37.28515625 C3.60686646 37.12199658 -0.41190904 37.87768948 -4.8984375 39.20703125 C-5.37410156 38.35431641 -5.37410156 38.35431641 -5.859375 37.484375 C-11.60079975 27.98406168 -20.27534736 23.25101811 -29.8984375 18.20703125 C-25.1484375 14.20703125 -25.1484375 14.20703125 -22.8984375 14.20703125 C-22.8984375 13.54703125 -22.8984375 12.88703125 -22.8984375 12.20703125 C-25.870376 13.33154852 -28.23284437 14.42996916 -30.8984375 16.20703125 C-32.94140625 16.40234375 -32.94140625 16.40234375 -35.0859375 16.33203125 C-36.3440625 16.29078125 -37.6021875 16.24953125 -38.8984375 16.20703125 C-37.51698655 12.89949342 -36.1421074 11.38619944 -33.125 9.48046875 C-32.3825 9.00609375 -31.64 8.53171875 -30.875 8.04296875 C-30.09898437 7.56085938 -29.32296875 7.07875 -28.5234375 6.58203125 C-27.75515625 6.0921875 -26.986875 5.60234375 -26.1953125 5.09765625 C-17.51228644 -0.40059209 -10.45725213 -2.86094634 0 0 Z " fill="#FCF8F8" transform="translate(380.8984375,474.79296875)"/>
<path d="M0 0 C0.66 0.33 1.32 0.66 2 1 C1.46890625 1.70125 0.9378125 2.4025 0.390625 3.125 C-8.04860115 14.45943512 -12.46147154 23.89383738 -11.44238281 38.17675781 C-10.60123778 43.54485997 -8.49820405 48.47217443 -6.5 53.5 C-1.71164773 65.65547298 0.86624215 76.88375081 -3.625 89.625 C-7.78491773 98.08978033 -13.82491583 104.00481856 -21 110 C-21.66 109.67 -22.32 109.34 -23 109 C-22.65066406 108.24074219 -22.30132813 107.48148437 -21.94140625 106.69921875 C-21.48636719 105.70535156 -21.03132812 104.71148437 -20.5625 103.6875 C-20.11003906 102.70136719 -19.65757812 101.71523438 -19.19140625 100.69921875 C-15.21225602 91.68416036 -16.30386658 82.23137677 -19.65625 73.16796875 C-21.4723092 68.88650361 -23.4745626 64.70389257 -25.48681641 60.51196289 C-30.8956744 49.07377573 -32.41185059 39.26283426 -29.09765625 27.0234375 C-24.54160747 14.47403623 -14.0704115 6.62082813 -2.50390625 0.93359375 C-1.67761719 0.62550781 -0.85132813 0.31742187 0 0 Z " fill="#BA140C" transform="translate(665,296)"/>
<path d="M0 0 C4.83507694 2.90952875 9.23830865 6.95498959 11.2265625 12.33984375 C10.56348177 19.60551556 2.21601633 25.42472363 -2.9765625 29.796875 C-4.80201488 31.29381625 -4.80201488 31.29381625 -6.296875 33.05859375 C-6.78414062 33.48140625 -7.27140625 33.90421875 -7.7734375 34.33984375 C-9.6126903 34.16954256 -11.4527315 33.9753229 -13.2734375 33.6640625 C-16.25837542 33.27695336 -19.13923759 33.30080932 -22.1484375 33.33984375 C-37.07673647 33.39179839 -37.07673647 33.39179839 -41.8984375 30.40234375 C-44.6106438 25.9724068 -44.69685052 22.39921593 -43.7734375 17.33984375 C-40.69799868 8.64488584 -31.94181193 2.88718368 -24.3984375 -1.72265625 C-16.10700969 -3.86699103 -7.82799117 -3.58251713 0 0 Z " fill="#FCFAFA" transform="translate(677.7734375,526.66015625)"/>
<path d="M0 0 C5.58163774 4.72419265 9.52216433 9.41200179 12.45703125 16.11328125 C12.99070312 17.31791016 12.99070312 17.31791016 13.53515625 18.546875 C15.18939679 23.15211244 15.66098153 27.33739008 14.45703125 32.11328125 C11.25622091 36.12529893 7.3446596 39.4789165 2.234375 40.6015625 C0.33203125 40.61328125 0.33203125 40.61328125 -2.54296875 40.11328125 C-3.35546875 38.42578125 -3.35546875 38.42578125 -3.54296875 36.11328125 C-1.23046875 33.61328125 -1.23046875 33.61328125 1.45703125 31.11328125 C3.25960745 28.18638634 3.73018162 25.97124862 3.70703125 22.55078125 C3.7121875 21.78636719 3.71734375 21.02195312 3.72265625 20.234375 C3.57998735 17.81345363 3.57998735 17.81345363 1.45703125 15.11328125 C0.96203125 15.60828125 0.96203125 15.60828125 0.45703125 16.11328125 C0.53953125 17.28890625 0.62203125 18.46453125 0.70703125 19.67578125 C0.77881996 24.64714946 -1.13584547 28.51786958 -4.54296875 32.11328125 C-6.50390625 32.9765625 -6.50390625 32.9765625 -8.54296875 33.11328125 C-10.19140625 32.22265625 -10.19140625 32.22265625 -11.91796875 30.86328125 C-17.52640023 27.03547345 -23.960882 26.25035523 -30.54296875 25.11328125 C-30.72472656 24.44941406 -30.90648437 23.78554688 -31.09375 23.1015625 C-33.74225746 13.75260535 -33.74225746 13.75260535 -40.54296875 7.11328125 C-38.3810355 1.62529683 -33.59454158 -0.35348164 -28.54296875 -2.88671875 C-18.98293485 -6.68208802 -8.3025949 -6.15998977 0 0 Z " fill="#FBF6F6" transform="translate(695.54296875,489.88671875)"/>
<path d="M0 0 C0 4.58774606 -2.45307811 7.90893293 -4.58984375 11.89453125 C-8.59355114 20.71155999 -7.42341626 29.56917835 -4.53125 38.50390625 C-2.51594852 43.10516856 0.20451359 46.83272639 3.20214844 50.83398438 C9.26986671 58.94532821 14.06380956 66.53048611 13.44921875 76.9921875 C11.9827433 86.81119703 8.09935491 94.25587523 2 102 C1.34 101.67 0.68 101.34 0 101 C0.33 99.88625 0.66 98.7725 1 97.625 C3.17480222 88.67364015 2.42500854 81.13209533 -2 73 C-4.73121287 68.96886809 -7.86305821 65.30769921 -11.0546875 61.63671875 C-18.97964033 52.26135003 -23.0437091 43.28496834 -22.62109375 30.82421875 C-20.99624778 20.81966401 -15.267693 11.16801402 -7.32421875 4.8828125 C-6.45410156 4.30273438 -5.58398438 3.72265625 -4.6875 3.125 C-3.80449219 2.52945312 -2.92148437 1.93390625 -2.01171875 1.3203125 C-1.34785156 0.88460938 -0.68398438 0.44890625 0 0 Z " fill="#BB140C" transform="translate(374,279)"/>
<path d="M0 0 C2.15048159 1.53536636 3.36403392 2.8732441 5 5 C5 5.66 5 6.32 5 7 C5.86625 7.226875 6.7325 7.45375 7.625 7.6875 C13.84289458 10.10557012 19.13180823 14.91116917 22 21 C22.83291854 24.84888969 22.92221914 28.26472236 21.04296875 31.80078125 C18.54107267 35.00161972 15.77525477 37.54137884 12 39 C9.69177656 38.98693458 7.54884961 38.73697095 5.2734375 38.34765625 C2.76424298 37.88626302 2.76424298 37.88626302 -0.75 38.1875 C-4 37 -4 37 -5.33203125 34.546875 C-6.17212581 32.42396939 -6.98212872 30.28897073 -7.765625 28.14453125 C-12.26407142 16.68488134 -22.20433394 10.81298789 -33 6 C-33.99 5.67 -34.98 5.34 -36 5 C-36 4.34 -36 3.68 -36 3 C-34.06374902 2.01836578 -32.12595461 1.03977546 -30.1875 0.0625 C-29.10855469 -0.48277344 -28.02960938 -1.02804687 -26.91796875 -1.58984375 C-18.52162323 -5.64751541 -8.37454718 -3.69022313 0 0 Z " fill="#FBF6F6" transform="translate(429,467)"/>
<path d="M0 0 C5.71329936 3.72389153 10.64762646 8.97353104 13.67431641 15.09130859 C14.55241193 21.48763189 14.46909596 27.67019495 10.67431641 33.09130859 C8.67431641 35.46630859 8.67431641 35.46630859 6.67431641 37.09130859 C5.68431641 37.09130859 4.69431641 37.09130859 3.67431641 37.09130859 C3.51576172 36.34107422 3.35720703 35.59083984 3.19384766 34.81787109 C0.18204044 21.60585491 -4.34714705 13.00062028 -15.83349609 5.51708984 C-19.81605678 3.23866563 -24.00966779 1.62308873 -28.32568359 0.09130859 C-28.32568359 -0.89869141 -28.32568359 -1.88869141 -28.32568359 -2.90869141 C-26.97672624 -3.42257992 -25.62111876 -3.91901862 -24.26318359 -4.40869141 C-23.50908203 -4.68712891 -22.75498047 -4.96556641 -21.97802734 -5.25244141 C-13.50618562 -7.34856719 -7.17552684 -4.20783428 0 0 Z " fill="#FCF7F8" transform="translate(439.32568359375,521.90869140625)"/>
<path d="M0 0 C7.56894183 3.70723681 13.20180623 9.40361246 17 17 C19.03637355 23.4753749 19.31506146 31.41620657 16.9765625 37.7890625 C13.82441173 43.27484975 9.62899953 47.85650305 5.32421875 52.4609375 C1.66131487 56.46242913 -1.66281277 60.72621799 -5 65 C-5.66 64.67 -6.32 64.34 -7 64 C-7.61653206 55.13563903 -7.16204299 49.2938997 -2 42 C-0.93570646 40.4178717 0.12679764 38.83453817 1.1875 37.25 C1.67605469 36.55390625 2.16460938 35.8578125 2.66796875 35.140625 C6.86088505 28.40244866 7.10851803 21.06425701 5.4296875 13.39453125 C4.10629038 9.23627818 2.3478585 5.68949193 0 2 C0 1.34 0 0.68 0 0 Z " fill="#B8130D" transform="translate(681,344)"/>
<path d="M0 0 C3.01262299 1.21764553 6.11781838 2.02199459 9.2421875 2.90625 C10.4384375 3.421875 11.6346875 3.9375 12.8671875 4.46875 C17.44920825 6.42035143 21.59203585 7.01998648 26.54296875 7.22265625 C27.51943359 7.26455078 28.49589844 7.30644531 29.50195312 7.34960938 C31.01305664 7.40858398 31.01305664 7.40858398 32.5546875 7.46875 C34.09479492 7.53352539 34.09479492 7.53352539 35.66601562 7.59960938 C38.19128319 7.70531825 40.71664312 7.80741468 43.2421875 7.90625 C42.9121875 8.89625 42.5821875 9.88625 42.2421875 10.90625 C32.30560856 15.85797851 19.50006429 16.93479746 8.83203125 13.953125 C6.72172338 13.12678388 4.62969659 12.25223339 2.55859375 11.33203125 C-1.1933496 9.71900496 -4.97118299 8.55823933 -8.8828125 7.40625 C-14.53036861 5.71285089 -19.76681056 3.60377301 -25.07421875 1.04296875 C-29.79520407 -0.95674992 -34.75765009 -2.02041671 -39.7578125 -3.09375 C-39.7578125 -3.75375 -39.7578125 -4.41375 -39.7578125 -5.09375 C-25.21782271 -6.82617432 -13.62326834 -5.74527611 0 0 Z " fill="#FCF7F7" transform="translate(352.7578125,589.09375)"/>
<path d="M0 0 C0.66 0.33 1.32 0.66 2 1 C1.59007812 1.58007812 1.18015625 2.16015625 0.7578125 2.7578125 C0.21898437 3.53898438 -0.31984375 4.32015625 -0.875 5.125 C-1.40867187 5.89070312 -1.94234375 6.65640625 -2.4921875 7.4453125 C-6.54023058 14.303914 -6.77006408 21.22330344 -6 29 C-3.97085849 35.86617613 0.65591038 40.12743578 6.125 44.5 C8.88879523 46.9033002 10.47531998 48.69652662 12 52 C12 53.32 12 54.64 12 56 C3.42917823 56.68263182 -1.77447264 52.28929767 -8 47 C-13.5508878 40.59274847 -16.46856183 34.10231846 -16.2421875 25.61328125 C-15.32922142 15.76208277 -10.02846671 8.2181118 -2.5625 1.9375 C-1.716875 1.298125 -0.87125 0.65875 0 0 Z " fill="#FBF4F4" transform="translate(281,514)"/>
<path d="M0 0 C-0.86625 1.68416016 -0.86625 1.68416016 -1.75 3.40234375 C-2.50093413 4.91359869 -3.25088177 6.42534411 -4 7.9375 C-4.3815625 8.67291016 -4.763125 9.40832031 -5.15625 10.16601562 C-7.66381282 15.29308602 -9.27901377 20.26820349 -8 26 C-6.53427201 27.62703336 -6.53427201 27.62703336 -5 29 C-4.60921444 31.72507798 -4.86383047 34.23121956 -5 37 C-10.70589472 37.45647158 -13.60098008 36.69917584 -18 33 C-21.38290268 29.16604363 -21.45958339 25.4678682 -21.27734375 20.5546875 C-20.42914395 12.74169216 -17.03985964 7.91126164 -11 3 C-7.25074514 0.27611546 -4.62275561 -1.53084717 0 0 Z " fill="#FBF6F6" transform="translate(366,542)"/>
<path d="M0 0 C2.31 0.33 4.62 0.66 7 1 C6.773125 2.216875 6.54625 3.43375 6.3125 4.6875 C5.95955544 7.63562518 5.94447265 8.85954847 7.0625 11.6875 C11.3448919 16.79874194 16.25667469 20.94563127 23 22 C25.85336944 21.68341578 28.57435473 21.12234915 31.375 20.49609375 C34.99223418 19.81247955 37.45946033 20.02070179 41 21 C41.66 21.99 42.32 22.98 43 24 C33.83737661 28.9999087 24.37818104 30.74138619 14.11328125 27.8203125 C7.17603914 25.12748285 1.4306699 21.71218025 -2 15 C-3.19211438 11.42365687 -3.25926574 8.75935317 -3 5 C-1.5 2.0625 -1.5 2.0625 0 0 Z " fill="#FBF5F5" transform="translate(482,565)"/>
<path d="M0 0 C3.738881 2.90554943 7.1707974 5.89835157 10.12890625 9.60546875 C12.65853667 12.69723927 15.02521877 14.24966498 18.37890625 16.35546875 C18.37890625 16.68546875 18.37890625 17.01546875 18.37890625 17.35546875 C17.67765625 17.38125 16.97640625 17.40703125 16.25390625 17.43359375 C10.46193492 17.77985291 6.12242026 18.48737493 1.1328125 21.515625 C-0.62109375 22.35546875 -0.62109375 22.35546875 -4.62109375 22.35546875 C-7.37109375 20.48046875 -7.37109375 20.48046875 -9.62109375 18.35546875 C-9.62109375 17.69546875 -9.62109375 17.03546875 -9.62109375 16.35546875 C-4.6281308 13.41090085 -0.28551749 12.72050939 5.37890625 12.35546875 C5.37890625 11.69546875 5.37890625 11.03546875 5.37890625 10.35546875 C-0.26062506 8.1335648 -5.37862087 7.9870302 -11.34375 7.87695312 C-16.13990675 7.70106544 -19.39523669 6.86289976 -23.62109375 4.35546875 C-17.36948254 -2.84335627 -8.31882169 -5.21940974 0 0 Z " fill="#FAF0EF" transform="translate(470.62109375,511.64453125)"/>
<path d="M0 0 C0.33 0.66 0.66 1.32 1 2 C2.3303125 2.4021875 2.3303125 2.4021875 3.6875 2.8125 C9.46031275 4.88199891 13.69244431 8.99742512 17.078125 14.04296875 C18.79567488 17.68912336 18.88784105 21.10060212 18 25 C15.81206189 29.11689579 12.32755557 32.32798989 8 34 C4.94490016 33.93817673 2.00415795 33.54323553 -1 33 C0.80412643 29.73539027 1.83394693 28.11070205 5 26 C5.86154855 21.67071855 6.02841107 16.92043787 3.91015625 12.96484375 C3.0233839 11.83645806 2.11474167 10.724867 1.18359375 9.6328125 C-0.75735552 6.95519932 -0.87111952 4.2220121 -1 1 C-0.67 0.67 -0.34 0.34 0 0 Z " fill="#FBF6F6" transform="translate(433,472)"/>
<path d="M0 0 C-1.52631579 8.24210526 -1.52631579 8.24210526 -3.5625 11.5 C-5.6667855 15.15962695 -6.29313754 18.78807635 -6 23 C-4.10770734 25.63624434 -4.10770734 25.63624434 -2 28 C-1.75 31.8125 -1.75 31.8125 -2 35 C-8.40196172 34.39028936 -12.23877852 32.08565701 -16.375 27.1875 C-18.34688161 23.31957839 -18.59276702 21.29756089 -18 17 C-15.61774895 9.98708118 -8.0325256 0 0 0 Z " fill="#FAF3F3" transform="translate(304,512)"/>
<path d="M0 0 C2.9375 1.5 2.9375 1.5 5 3 C2.23053746 5.94255394 -0.53102612 8.4500977 -3.8125 10.8125 C-11.10688154 16.2039994 -16.40585477 21.61366113 -20 30 C-21.65 29.67 -23.3 29.34 -25 29 C-26.09973794 25.38657535 -26.47897846 23.22088553 -25.08203125 19.66015625 C-19.84263623 10.3701365 -11.4737063 -0.98911261 0 0 Z " fill="#FAF4F4" transform="translate(599,487)"/>
<path d="M0 0 C3.76734586 1.25578195 4.06945217 2.46790131 6.0625 5.8125 C9.20686406 10.37542331 11.77082797 12.77637642 17.0390625 14.53515625 C21.98888979 15.31223995 26.74179522 14.76228764 31.6796875 14.1640625 C34.95724271 14.00211271 36.32186622 14.21009149 39 16 C35.21941958 20.5366965 31.38722512 21.63530692 25.60546875 22.2578125 C19.63310844 22.53303648 14.88742277 21.58171424 10 18 C9.34 17.01 8.68 16.02 8 15 C8.33 14.34 8.66 13.68 9 13 C7.02 13.33 5.04 13.66 3 14 C-0.65587458 10.34412542 -0.95969788 5.96723601 -1 1 C-0.67 0.67 -0.34 0.34 0 0 Z " fill="#FBF3F3" transform="translate(570,557)"/>
<path d="M0 0 C1.18529297 0.02707031 1.18529297 0.02707031 2.39453125 0.0546875 C2.98621094 0.07789063 3.57789063 0.10109375 4.1875 0.125 C3.1875 3.125 3.1875 3.125 1.296875 4.3359375 C0.51828125 4.72007812 -0.2603125 5.10421875 -1.0625 5.5 C-5.96864159 8.11145804 -9.18057798 11.13787523 -12.71484375 15.44140625 C-13.75318359 16.67697266 -13.75318359 16.67697266 -14.8125 17.9375 C-15.451875 18.72769531 -16.09125 19.51789063 -16.75 20.33203125 C-18.8125 22.125 -18.8125 22.125 -21.5625 22.38671875 C-22.305 22.30035156 -23.0475 22.21398437 -23.8125 22.125 C-24.43760906 17.1241275 -23.2278397 14.13691545 -20.50390625 10.0859375 C-15.45655826 4.2342777 -7.82106139 -0.23346452 0 0 Z " fill="#FAF0F0" transform="translate(580.8125,483.875)"/>
<path d="M0 0 C3.22070213 1.73225015 6.10864922 3.32544433 8.4375 6.1875 C8.4375 6.8475 8.4375 7.5075 8.4375 8.1875 C2.73168972 7.81495569 -2.86084173 7.43551469 -8.4375 6.125 C-14.7598148 4.73037174 -21.12336073 5.02049062 -27.5625 5.1875 C-27.19084479 2.82872829 -26.9530936 1.53421871 -25.13671875 -0.078125 C-16.61289163 -4.52533915 -8.57777396 -4.15923502 0 0 Z " fill="#FAEFEE" transform="translate(647.5625,473.8125)"/>
<path d="M0 0 C4.31213657 -0.14648734 8.62362443 -0.23447124 12.9375 -0.3125 C14.14986328 -0.35439453 15.36222656 -0.39628906 16.61132812 -0.43945312 C24.39997501 -0.54499035 29.65785432 0.3423719 36 5 C36 5.66 36 6.32 36 7 C33.83561014 7.36782468 31.6683161 7.71857591 29.5 8.0625 C27.69015625 8.35833984 27.69015625 8.35833984 25.84375 8.66015625 C18.42118423 9.31641969 12.71852331 7.81591307 6 4.9375 C5.32066406 4.65583984 4.64132812 4.37417969 3.94140625 4.08398438 C2.29060213 3.39808689 0.64474531 2.70030171 -1 2 C-0.67 1.34 -0.34 0.68 0 0 Z " fill="#FBF3F3" transform="translate(416,590)"/>
<path d="M0 0 C4.28774039 2.50340122 7.92134732 5.6473738 9.765625 10.3359375 C10.32421875 12.5390625 10.32421875 12.5390625 10.88671875 16.1015625 C7.13269544 14.76369249 4.30233699 13.06931165 1.13671875 10.6640625 C-5.90383083 5.63957534 -12.59127801 3.87629007 -21.11328125 3.1015625 C-20.11328125 0.1015625 -20.11328125 0.1015625 -18.34765625 -1.06640625 C-12.51442986 -3.23856922 -5.64054971 -2.44843334 0 0 Z " fill="#F9EFEF" transform="translate(603.11328125,465.8984375)"/>
<path d="M0 0 C0.804375 0.495 1.60875 0.99 2.4375 1.5 C-1.90637381 3.96452944 -6.75316388 5.08787865 -11.54296875 6.38085938 C-17.80925025 8.21590038 -21.86441528 10.95287291 -25.5625 16.5 C-27.5425 16.17 -29.5225 15.84 -31.5625 15.5 C-31.5625 12.5 -31.5625 12.5 -29.18359375 9.90625 C-28.13032719 8.92888255 -27.06871924 7.96044613 -26 7 C-25.48630859 6.51402344 -24.97261719 6.02804687 -24.44335938 5.52734375 C-17.33967831 -0.94980147 -9.19101121 -3.86989946 0 0 Z " fill="#FBF5F5" transform="translate(560.5625,514.5)"/>
<path d="M0 0 C0 0.66 0 1.32 0 2 C-0.73863281 2.10957031 -1.47726562 2.21914063 -2.23828125 2.33203125 C-7.55304737 3.16267449 -12.66006625 4.12745756 -17.8125 5.6875 C-22.34795358 7.00212423 -25.42869749 7.1174295 -30 6 C-28.47271592 1.72360458 -25.93115643 0.10597666 -22 -2 C-14.26402715 -4.3832404 -6.79909168 -5.15082703 0 0 Z " fill="#F8F0F1" transform="translate(574,532)"/>
<path d="M0 0 C8.73387353 -0.5402396 16.51774878 -0.14572045 23.73046875 5.30859375 C25.125 6.625 25.125 6.625 27 9 C27 9.66 27 10.32 27 11 C18.31242939 11.66827466 9.9725133 9.31209327 2.75 4.375 C1.8425 3.59125 0.935 2.8075 0 2 C0 1.34 0 0.68 0 0 Z " fill="#F9ECEC" transform="translate(307,561)"/>
<path d="M0 0 C4.50780187 0.03238363 8.13192149 0.71164661 12.375 2.1875 C11.17118552 4.68111571 9.92071278 6.86893083 8.375 9.1875 C5.6953125 9.5859375 5.6953125 9.5859375 2.5 9.5625 C1.45070313 9.57023438 0.40140625 9.57796875 -0.6796875 9.5859375 C-3.89310127 9.15123166 -5.2613792 8.34558856 -7.625 6.1875 C-5.26047372 0.03973167 -5.26047372 0.03973167 0 0 Z " fill="#FCF8F8" transform="translate(505.625,557.8125)"/>
<path d="M0 0 C0.9796875 -0.01417969 1.959375 -0.02835938 2.96875 -0.04296875 C5.5 0.1875 5.5 0.1875 7.5 2.1875 C7.5 3.1775 7.5 4.1675 7.5 5.1875 C6.83613281 5.27386719 6.17226563 5.36023438 5.48828125 5.44921875 C-0.65238886 6.42634728 -3.10743552 7.67291984 -7.5 12.1875 C-10.63777068 12.06445017 -12.70701911 11.58399044 -15.5 10.1875 C-12.9662496 3.34637393 -6.96888174 0.04584791 0 0 Z " fill="#FAF2F2" transform="translate(574.5,542.8125)"/>
<path d="M0 0 C-1.4160599 0.79275148 -2.83287553 1.58415312 -4.25 2.375 C-5.43335938 3.03628906 -5.43335938 3.03628906 -6.640625 3.7109375 C-8.14556606 4.53317351 -9.67627067 5.31094263 -11.234375 6.02734375 C-13.82605814 7.455063 -14.02038467 9.24483188 -15 12 C-15.66 13.051875 -16.32 14.10375 -17 15.1875 C-19.55643178 19.4990939 -20.25060102 24.09932511 -21 29 C-20.01 29 -19.02 29 -18 29 C-17.3125 30.75 -17.3125 30.75 -17 33 C-18.4375 35.25 -18.4375 35.25 -20 37 C-20.28875 36.21625 -20.5775 35.4325 -20.875 34.625 C-21.84912254 31.90328368 -21.84912254 31.90328368 -24 30 C-25.24357088 23.19672451 -23.07553695 17.9666196 -19.9375 12.0625 C-18.55672558 9.3945243 -17.25493811 6.73238298 -16 4 C-16.33 3.34 -16.66 2.68 -17 2 C-15.35 1.67 -13.7 1.34 -12 1 C-12 1.99 -12 2.98 -12 4 C-11.38511719 3.62746094 -10.77023437 3.25492188 -10.13671875 2.87109375 C-9.32847656 2.39800781 -8.52023437 1.92492187 -7.6875 1.4375 C-6.88699219 0.96183594 -6.08648437 0.48617187 -5.26171875 -0.00390625 C-3 -1 -3 -1 0 0 Z " fill="#C41C17" transform="translate(381,538)"/>
<path d="M0 0 C-5.98263744 3.98842496 -10.9134042 4.58772405 -18 4 C-21.625 3 -21.625 3 -24 2 C-23.01936505 -0.58531034 -21.99699158 -2.00273493 -19.9375 -3.875 C-13.44969494 -6.3596913 -6.12530057 -2.45012023 0 0 Z " fill="#FAF2F2" transform="translate(576,606)"/>
<path d="M0 0 C3.24943282 0.17102278 4.60323479 0.56219011 6.8125 3 C8.40754177 7.02957921 8.43807212 10.71194793 8 15 C7.67 15.66 7.34 16.32 7 17 C4.12577293 16.68064144 2.13640427 16.07897089 -0.375 14.625 C-3.02167368 10.34960406 -1.92777607 5.79747455 -1 1 C-0.67 0.67 -0.34 0.34 0 0 Z " fill="#FBF5F5" transform="translate(525,566)"/>
<path d="M0 0 C2.1484375 0.39453125 2.1484375 0.39453125 4 1 C3.31164062 1.51046875 3.31164062 1.51046875 2.609375 2.03125 C-3.21633613 6.63307223 -6.53529328 11.14957289 -7.4375 18.625 C-6.85196506 23.14198385 -5.66285929 26.50853191 -2.21875 29.59765625 C0.30640083 31.19365827 2.31642114 31.68570362 5.25 32.1875 C6.14203125 32.34605469 7.0340625 32.50460937 7.953125 32.66796875 C8.62859375 32.77753906 9.3040625 32.88710938 10 33 C10 33.33 10 33.66 10 34 C2.53909798 34.68799301 -2.17193839 33.82177759 -8 29 C-10.75487251 26.50339679 -10.96457399 25.22042852 -11.5625 21.5 C-11.2962383 14.40412573 -7.05234765 6.90398118 -2.375 1.6875 C-1.59125 1.130625 -0.8075 0.57375 0 0 Z " fill="#AD2827" transform="translate(608,505)"/>
<path d="M0 0 C4.53189151 0.51304432 6.0508612 2.26867734 9.3125 5.375 C8.3125 8.375 8.3125 8.375 5.5625 10.125 C2.07893607 11.46483228 0.75558267 11.67778804 -2.6875 10.375 C-4.5 8.8125 -4.5 8.8125 -5.6875 7.375 C-3.48915717 0.48685914 -3.48915717 0.48685914 0 0 Z " fill="#FBF3F3" transform="translate(588.6875,548.625)"/>
<path d="M0 0 C0.99 0.33 1.98 0.66 3 1 C2.41278815 4.7501484 1.3231457 7.55729882 -0.5 10.875 C-2.66670622 15.04606558 -3.69533251 18.3284318 -4 23 C-3.34 23 -2.68 23 -2 23 C-2 22.34 -2 21.68 -2 21 C-1.34 21 -0.68 21 0 21 C0.33 24.96 0.66 28.92 1 33 C0.01 32.67 -0.98 32.34 -2 32 C-3.05047644 29.68895182 -4.05007438 27.35416349 -5 25 C-5.66 24.34 -6.32 23.68 -7 23 C-7.38855694 16.64061813 -5.22211099 12.27254525 -2 7 C-1.17532534 4.68088729 -0.58660798 2.39531592 0 0 Z " fill="#B81816" transform="translate(304,512)"/>
<path d="M0 0 C1.875 0.3125 1.875 0.3125 4 1 C6.70585091 5.05877637 6.64812961 8.23387612 6 13 C4.68525181 16.5986149 3.0466323 19.33131825 -0.25 21.4375 C-0.8275 21.623125 -1.405 21.80875 -2 22 C-2.33 21.34 -2.66 20.68 -3 20 C-3.99 19.67 -4.98 19.34 -6 19 C-5.21625 18.2575 -4.4325 17.515 -3.625 16.75 C-0.06734878 13.02293682 1.09565401 10.97245268 1.1875 5.875 C1.27115163 2.20608425 1.27115163 2.20608425 0 0 Z " fill="#B91916" transform="translate(694,504)"/>
<path d="M0 0 C1.58294782 -0.05437607 3.16644256 -0.09296271 4.75 -0.125 C5.63171875 -0.14820313 6.5134375 -0.17140625 7.421875 -0.1953125 C10.19261247 0.01459185 11.72306126 0.41823282 14 2 C14.90625 3.734375 14.90625 3.734375 15.5 5.75 C16.46919928 8.74327291 17.19349816 10.24878335 19.1875 12.8125 C21.8039449 17.41383414 22.00424728 21.82107185 21 27 C18.5 29.1875 18.5 29.1875 16 30 C16.33 29.360625 16.66 28.72125 17 28.0625 C18.37889419 23.83963655 19.04101257 20.37776811 18 16 C15.69958562 12.31186465 12.97891212 9.15548243 10 6 C9.4946875 5.43410156 8.989375 4.86820312 8.46875 4.28515625 C6.03744333 2.15776291 3.07863567 1.75513705 0 1 C0 0.67 0 0.34 0 0 Z " fill="#B82622" transform="translate(418,471)"/>
<path d="M0 0 C14.38111877 2.41656872 14.38111877 2.41656872 18.140625 6.09375 C20.27316648 9.94774063 21.21581763 13.68319026 22 18 C21.34 18 20.68 18 20 18 C19.505 16.948125 19.01 15.89625 18.5 14.8125 C15.97052364 10.39040126 12.58084247 8.09735891 8 6 C4.69015417 5.13780226 4.69015417 5.13780226 2 5 C2 4.34 2 3.68 2 3 C1.34 2.67 0.68 2.34 0 2 C0 1.34 0 0.68 0 0 Z " fill="#B21210" transform="translate(331,501)"/>
<path d="M0 0 C-1.33467676 3.0856141 -2.65088395 4.84376111 -5.375 6.8125 C-5.96023438 7.25207031 -6.54546875 7.69164062 -7.1484375 8.14453125 C-9 9 -9 9 -11.1484375 8.765625 C-13 8 -13 8 -14.25 5.9375 C-14.62125 4.9784375 -14.62125 4.9784375 -15 4 C-9.98010898 -0.11888494 -6.40141012 -0.51211281 0 0 Z " fill="#F8E9E9" transform="translate(647,569)"/>
<path d="M0 0 C1.46815482 0.0878497 2.93565133 0.18728721 4.40234375 0.296875 C5.52092773 0.35681641 5.52092773 0.35681641 6.66210938 0.41796875 C8.56197606 0.54566188 10.4533938 0.78782761 12.33984375 1.046875 C12.66984375 1.706875 12.99984375 2.366875 13.33984375 3.046875 C12.01984375 3.376875 10.69984375 3.706875 9.33984375 4.046875 C11.21686702 8.94250193 11.21686702 8.94250193 14.33984375 13.046875 C12.08984375 13.421875 12.08984375 13.421875 9.33984375 13.046875 C7.95542375 11.08189178 6.62780541 9.07639035 5.33984375 7.046875 C1.75413781 4.22408522 -1.10889687 2.58231728 -5.66015625 2.046875 C-3.66015625 0.046875 -3.66015625 0.046875 0 0 Z " fill="#BB211B" transform="translate(382.66015625,480.953125)"/>
<path d="M0 0 C0.66 0.33 1.32 0.66 2 1 C-1.05023004 4.12446804 -4.1102572 7.23890149 -7.1796875 10.34448242 C-8.22214157 11.40200929 -9.26188549 12.4622149 -10.29882812 13.52514648 C-11.79110035 15.05386789 -13.29290176 16.57264335 -14.796875 18.08984375 C-15.69760742 19.00628662 -16.59833984 19.92272949 -17.52636719 20.86694336 C-19.84300538 22.86462081 -21.01671424 23.65600889 -24 24 C-24 23.34 -24 22.68 -24 22 C-22.6015625 20.625 -22.6015625 20.625 -20.625 19 C-17.20622511 16.10252767 -14.02011829 13.0677716 -10.875 9.875 C-7.3932437 6.35025906 -3.8869598 3.06865248 0 0 Z " fill="#F2CBCA" transform="translate(644,584)"/>
<path d="M0 0 C3.60786116 0.09295617 4.58447503 0.36667034 7.6875 2.5 C10.00427426 5.9027622 10.44788724 8.364083 10.6875 12.4375 C10.0275 12.4375 9.3675 12.4375 8.6875 12.4375 C8.254375 11.695 7.82125 10.9525 7.375 10.1875 C5.44374266 7.04026581 3.80199114 5.41944891 0.6875 3.4375 C-3.002248 2.63527849 -3.002248 2.63527849 -6.3125 2.4375 C-3.94209692 0.06709692 -3.24947247 0.09284207 0 0 Z " fill="#B51D19" transform="translate(406.3125,530.5625)"/>
<path d="M0 0 C6.93 0 13.86 0 21 0 C17.19060883 3.80939117 14.78569068 4.14223838 9.5625 4.1875 C5.96098722 4.15778455 3.2487053 3.67675112 0 2 C0 1.34 0 0.68 0 0 Z " fill="#A81D1D" transform="translate(380,575)"/>
<path d="M0 0 C0.99 0 1.98 0 3 0 C3 2.64 3 5.28 3 8 C3.99 8 4.98 8 6 8 C6.6875 9.75 6.6875 9.75 7 12 C5.5625 14.25 5.5625 14.25 4 16 C3.71125 15.21625 3.4225 14.4325 3.125 13.625 C2.15087746 10.90328368 2.15087746 10.90328368 0 9 C-0.1953125 6.8359375 -0.1953125 6.8359375 -0.125 4.375 C-0.10695313 3.55773437 -0.08890625 2.74046875 -0.0703125 1.8984375 C-0.04710937 1.27195312 -0.02390625 0.64546875 0 0 Z " fill="#BA1210" transform="translate(357,559)"/>
<path d="M0 0 C0.99 0 1.98 0 3 0 C3.5775 0.763125 4.155 1.52625 4.75 2.3125 C8.73769269 7.07557738 14.00540985 8.26895242 20 9 C20 9.33 20 9.66 20 10 C12.53271162 10.68858192 7.87615481 9.75277227 2 5 C1.34 4.34 0.68 3.68 0 3 C0 2.01 0 1.02 0 0 Z " fill="#AB2E2E" transform="translate(598,529)"/>
<path d="M0 0 C0 3 0 3 -1.28515625 4.62573242 C-2.16494141 5.4819519 -2.16494141 5.4819519 -3.0625 6.35546875 C-3.69414062 6.97744141 -4.32578125 7.59941406 -4.9765625 8.24023438 C-5.64429688 8.88283203 -6.31203125 9.52542969 -7 10.1875 C-8.00160156 11.16879883 -8.00160156 11.16879883 -9.0234375 12.16992188 C-10.67578441 13.78686135 -12.33471601 15.39640491 -14 17 C-14.66 16.67 -15.32 16.34 -16 16 C-14.27538679 14.07906479 -12.54557391 12.163278 -10.8125 10.25 C-10.32974609 9.71117187 -9.84699219 9.17234375 -9.34960938 8.6171875 C-6.43837795 5.41287909 -3.47293499 2.6158121 0 0 Z " fill="#B51B17" transform="translate(449,267)"/>
<path d="M0 0 C0 0.66 0 1.32 0 2 C-4.64564624 4.47767799 -9.85048438 4.81170331 -15 4 C-16.8046875 2.48046875 -16.8046875 2.48046875 -18 1 C-15.37504621 0.83257698 -12.75004205 0.6660283 -10.125 0.5 C-9.00544922 0.42845703 -9.00544922 0.42845703 -7.86328125 0.35546875 C-2.2265625 0 -2.2265625 0 0 0 Z " fill="#B7332F" transform="translate(338,542)"/>
<path d="M0 0 C0.33 0 0.66 0 1 0 C1 1.65 1 3.3 1 5 C1.66 5 2.32 5 3 5 C3 4.34 3 3.68 3 3 C3.66 3 4.32 3 5 3 C5.33 6.96 5.66 10.92 6 15 C5.01 14.67 4.02 14.34 3 14 C1.375 10.5625 1.375 10.5625 0 7 C-0.33 6.34 -0.66 5.68 -1 5 C-0.72057545 3.32345271 -0.39171753 1.65391846 0 0 Z " fill="#C53A37" transform="translate(299,530)"/>
<path d="M0 0 C0 2.79784711 -0.37195775 4.9790678 -1 7.6875 C-1.185625 8.49574219 -1.37125 9.30398438 -1.5625 10.13671875 C-1.7790625 11.05904297 -1.7790625 11.05904297 -2 12 C-3.32 11.67 -4.64 11.34 -6 11 C-5.62671065 5.64951939 -4.0042343 3.49087093 0 0 Z " fill="#C4201D" transform="translate(648,540)"/>
<path d="M0 0 C0.33 0.99 0.66 1.98 1 3 C1.66 3.33 2.32 3.66 3 4 C2.38125 5.0725 1.7625 6.145 1.125 7.25 C-0.3323679 9.79780984 -1.72924491 12.35259355 -3 15 C-3 14.34 -3 13.68 -3 13 C-3.66 13 -4.32 13 -5 13 C-3.58192622 8.52761347 -1.88695626 4.28853694 0 0 Z " fill="#C32A25" transform="translate(363,546)"/>
<path d="M0 0 C1.875 0.3125 1.875 0.3125 4 1 C6.13586678 4.20380017 6.23132175 5.01939967 6.125 8.6875 C6.10695313 9.49574219 6.08890625 10.30398438 6.0703125 11.13671875 C6.03550781 12.05904297 6.03550781 12.05904297 6 13 C5.525625 12.34 5.05125 11.68 4.5625 11 C4.046875 10.34 3.53125 9.68 3 9 C2.67 9 2.34 9 2 9 C1.855625 7.88625 1.71125 6.7725 1.5625 5.625 C1.21627965 2.17857953 1.21627965 2.17857953 0 0 Z " fill="#BE312A" transform="translate(694,504)"/>
<path d="M0 0 C5.41390868 0.46671627 9.20517932 1.24297811 14 4 C10.74266739 5.08577754 9.67810011 4.90445241 6.4375 4.125 C5.65246094 3.94195313 4.86742187 3.75890625 4.05859375 3.5703125 C2 3 2 3 0 2 C0 1.34 0 0.68 0 0 Z " fill="#F2D5D5" transform="translate(454,611)"/>
<path d="M0 0 C5.28 1.32 10.56 2.64 16 4 C16 4.66 16 5.32 16 6 C15.01 5.67 14.02 5.34 13 5 C11.10529184 4.9314505 9.2083166 4.91519628 7.3125 4.9375 C6.31863281 4.94652344 5.32476562 4.95554687 4.30078125 4.96484375 C3.54152344 4.97644531 2.78226562 4.98804688 2 5 C2 4.34 2 3.68 2 3 C1.34 2.67 0.68 2.34 0 2 C0 1.34 0 0.68 0 0 Z " fill="#CF5752" transform="translate(331,501)"/>
<path d="M0 0 C0 3 0 3 -1.53125 4.82421875 C-2.1809375 5.43910156 -2.830625 6.05398438 -3.5 6.6875 C-4.1496875 7.31011719 -4.799375 7.93273437 -5.46875 8.57421875 C-5.9740625 9.04472656 -6.479375 9.51523437 -7 10 C-7.99 9.67 -8.98 9.34 -10 9 C-8.71142987 7.68445979 -7.41904109 6.37265903 -6.125 5.0625 C-5.04605469 3.96615234 -5.04605469 3.96615234 -3.9453125 2.84765625 C-2 1 -2 1 0 0 Z " fill="#B7241F" transform="translate(208,491)"/>
<path d="M0 0 C0.33 0 0.66 0 1 0 C1.33 2.64 1.66 5.28 2 8 C2.99 8.33 3.98 8.66 5 9 C3.35 11.31 1.7 13.62 0 16 C-1.52634923 12.94730154 -0.83794444 10.24154311 -0.5625 6.875 C-0.46066406 5.59367187 -0.35882813 4.31234375 -0.25390625 2.9921875 C-0.12822266 1.51105469 -0.12822266 1.51105469 0 0 Z " fill="#C83731" transform="translate(348,402)"/>
<path d="M0 0 C0.66 0.33 1.32 0.66 2 1 C-1.3 4.3 -4.6 7.6 -8 11 C-8.66 10.34 -9.32 9.68 -10 9 C-6.7 6.03 -3.4 3.06 0 0 Z " fill="#EFC4C0" transform="translate(644,584)"/>
<path d="M0 0 C1.9375 0.8125 1.9375 0.8125 3.9375 2.8125 C3.5625 4.9375 3.5625 4.9375 2.9375 6.8125 C2.6075 5.8225 2.2775 4.8325 1.9375 3.8125 C-0.3725 3.4825 -2.6825 3.1525 -5.0625 2.8125 C-2.62182203 -0.23834746 -2.62182203 -0.23834746 0 0 Z " fill="#BF0402" transform="translate(550.0625,578.1875)"/>
<path d="M0 0 C-0.61488281 0.33773437 -1.22976563 0.67546875 -1.86328125 1.0234375 C-2.67152344 1.46945312 -3.47976563 1.91546875 -4.3125 2.375 C-5.11300781 2.81585937 -5.91351563 3.25671875 -6.73828125 3.7109375 C-8.53527943 4.73513335 -10.27900708 5.85267138 -12 7 C-12.66 6.34 -13.32 5.68 -14 5 C-13.34 3.68 -12.68 2.36 -12 1 C-12 1.99 -12 2.98 -12 4 C-11.38511719 3.62746094 -10.77023437 3.25492188 -10.13671875 2.87109375 C-8.92435547 2.16146484 -8.92435547 2.16146484 -7.6875 1.4375 C-6.48673828 0.72400391 -6.48673828 0.72400391 -5.26171875 -0.00390625 C-3 -1 -3 -1 0 0 Z " fill="#C74D4B" transform="translate(381,538)"/>
<path d="M0 0 C1.32 0 2.64 0 4 0 C4 0.66 4 1.32 4 2 C-0.58031088 4.99481865 -0.58031088 4.99481865 -3 6 C-5.4375 5.25 -5.4375 5.25 -7 4 C-6.030625 3.525625 -5.06125 3.05125 -4.0625 2.5625 C-1.19522563 1.29806053 -1.19522563 1.29806053 0 0 Z " fill="#D54F49" transform="translate(354,487)"/>
<path d="M0 0 C1.11375 0.598125 2.2275 1.19625 3.375 1.8125 C4.00148438 2.14894531 4.62796875 2.48539062 5.2734375 2.83203125 C7 4 7 4 9 7 C7 8 7 8 5.0625 7.875 C2.12140904 6.62726444 1.3711849 4.81092904 0 2 C0 1.34 0 0.68 0 0 Z " fill="#B72825" transform="translate(681,344)"/>
<path d="M0 0 C2.64 0.33 5.28 0.66 8 1 C8 1.33 8 1.66 8 2 C10.97 2.495 10.97 2.495 14 3 C14 3.33 14 3.66 14 4 C4.58997722 4.3690205 4.58997722 4.3690205 0 2 C0 1.34 0 0.68 0 0 Z " fill="#B83839" transform="translate(380,575)"/>
<path d="M0 0 C1.6396875 0.0928125 1.6396875 0.0928125 3.3125 0.1875 C2.9825 1.1775 2.6525 2.1675 2.3125 3.1875 C-0.6575 3.1875 -3.6275 3.1875 -6.6875 3.1875 C-3.6875 0.1875 -3.6875 0.1875 0 0 Z " fill="#F4D8D7" transform="translate(615.6875,559.8125)"/>
<path d="M0 0 C0.33 0 0.66 0 1 0 C0.44687265 4.02992782 -0.1558062 8.02022924 -1 12 C-1.66 12 -2.32 12 -3 12 C-2.88541307 10.56163249 -2.75790884 9.12429034 -2.625 7.6875 C-2.55539062 6.88699219 -2.48578125 6.08648438 -2.4140625 5.26171875 C-2 3 -2 3 0 0 Z " fill="#9F1212" transform="translate(300,523)"/>
<path d="M0 0 C0.33 0 0.66 0 1 0 C1.33 2.64 1.66 5.28 2 8 C0.66666667 8 -0.66666667 8 -2 8 C-2.125 5.125 -2.125 5.125 -2 2 C-1.34 1.34 -0.68 0.68 0 0 Z " fill="#AF0D0D" transform="translate(599,522)"/>
<path d="M0 0 C0.66 0.33 1.32 0.66 2 1 C-0.97 3.64 -3.94 6.28 -7 9 C-7.99 8.67 -8.98 8.34 -10 8 C-6.7 5.36 -3.4 2.72 0 0 Z " fill="#962927" transform="translate(791,484)"/>
<path d="M0 0 C3.3 0 6.6 0 10 0 C10.33 1.32 10.66 2.64 11 4 C8.04725901 4 6.50941597 3.56108169 3.8125 2.5 C3.09707031 2.2215625 2.38164062 1.943125 1.64453125 1.65625 C1.10183594 1.4396875 0.55914062 1.223125 0 1 C0 0.67 0 0.34 0 0 Z " fill="#B31412" transform="translate(418,471)"/>
<path d="M0 0 C0.6875 1.75 0.6875 1.75 1 4 C-0.4375 6.25 -0.4375 6.25 -2 8 C-2.309375 7.21625 -2.61875 6.4325 -2.9375 5.625 C-3.92875038 3.07669872 -3.92875038 3.07669872 -5 1 C-3 0 -3 0 0 0 Z " fill="#CE2B27" transform="translate(363,567)"/>
<path d="M0 0 C1.4606285 2.64738916 2 3.89448334 2 7 C1.01 7.33 0.02 7.66 -1 8 C-1.33 7.34 -1.66 6.68 -2 6 C-2.99 5.67 -3.98 5.34 -5 5 C-3.35 3.35 -1.7 1.7 0 0 Z " fill="#C02722" transform="translate(693,518)"/>
<path d="M0 0 C0.66 0.33 1.32 0.66 2 1 C-1.43361902 4.63559661 -4.7973607 7.36113346 -9 10 C-7.61811547 6.78956118 -6.07578097 4.95063635 -3.375 2.75 C-2.74335938 2.22921875 -2.11171875 1.7084375 -1.4609375 1.171875 C-0.73777344 0.59179688 -0.73777344 0.59179688 0 0 Z " fill="#F3D3D1" transform="translate(281,514)"/>
<path d="M0 0 C3.10551666 3.10551666 3.81323934 4.89198233 5 9 C3.68 9 2.36 9 1 9 C0.67 6.03 0.34 3.06 0 0 Z " fill="#BD4840" transform="translate(397,494)"/>
<path d="M0 0 C2.79794127 0.01798163 5.56201769 0.11890813 8.3515625 0.33203125 C8.3515625 0.66203125 8.3515625 0.99203125 8.3515625 1.33203125 C7.42923828 1.37070312 7.42923828 1.37070312 6.48828125 1.41015625 C1.35901659 1.61349605 1.35901659 1.61349605 -2.7109375 4.39453125 C-3.175 5.35359375 -3.175 5.35359375 -3.6484375 6.33203125 C-4.3084375 6.00203125 -4.9684375 5.67203125 -5.6484375 5.33203125 C-4.52887184 1.88721383 -3.69126529 0.46276925 0 0 Z " fill="#C64F49" transform="translate(582.6484375,450.66796875)"/>
<path d="M0 0 C0 3.93169105 -1.39419615 5.16427228 -4 8 C-4.66 8 -5.32 8 -6 8 C-6 6.68 -6 5.36 -6 4 C-3 1.75 -3 1.75 0 0 Z " fill="#BE2C28" transform="translate(374,279)"/>
<path d="M0 0 C0 0.66 0 1.32 0 2 C-3.08809695 3.76462683 -4.23312136 4 -8 4 C-8 3.34 -8 2.68 -8 2 C-4.91190305 0.23537317 -3.76687864 0 0 0 Z " fill="#C14A4A" transform="translate(485,547)"/>
<path d="M0 0 C0.66 0 1.32 0 2 0 C2.33 3.96 2.66 7.92 3 12 C2.01 11.67 1.02 11.34 0 11 C0 7.37 0 3.74 0 0 Z " fill="#C13331" transform="translate(302,533)"/>
<path d="M0 0 C0.33 0 0.66 0 1 0 C1.3125 3.3125 1.3125 3.3125 1 7 C-1.5 8.9375 -1.5 8.9375 -4 10 C-2.66666667 6.66666667 -1.33333333 3.33333333 0 0 Z " fill="#A62829" transform="translate(438,491)"/>
<path d="M0 0 C1.32 0.33 2.64 0.66 4 1 C3.67 1.99 3.34 2.98 3 4 C1.35 4.33 -0.3 4.66 -2 5 C-1.34 3.35 -0.68 1.7 0 0 Z " fill="#C2291D" transform="translate(540,594)"/>
<path d="M0 0 C2.31 0 4.62 0 7 0 C7 0.99 7 1.98 7 3 C4.69 2.67 2.38 2.34 0 2 C0 1.34 0 0.68 0 0 Z " fill="#EEB8B3" transform="translate(313,584)"/>
<path d="M0 0 C2.31 0.33 4.62 0.66 7 1 C7.33 1.99 7.66 2.98 8 4 C6.68 4.33 5.36 4.66 4 5 C3.67 4.01 3.34 3.02 3 2 C2.01 1.34 1.02 0.68 0 0 Z " fill="#D23E35" transform="translate(545,581)"/>
<path d="M0 0 C0.66 0.33 1.32 0.66 2 1 C0.35 2.65 -1.3 4.3 -3 6 C-3 5.34 -3 4.68 -3 4 C-3.99 3.67 -4.98 3.34 -6 3 C-4.03533587 1.93224776 -2.03144641 0.93446535 0 0 Z " fill="#BE2829" transform="translate(665,296)"/>
<path d="M0 0 C0.99 0.33 1.98 0.66 3 1 C1.02 2.98 -0.96 4.96 -3 7 C-3.66 6.67 -4.32 6.34 -5 6 C-3.35 4.02 -1.7 2.04 0 0 Z " fill="#BD2822" transform="translate(364,286)"/>
</svg>
